<?xml version="1.0" standalone="no"?><!DOCTYPE svg PUBLIC "-//W3C//DTD SVG 1.1//EN" "http://www.w3.org/Graphics/SVG/1.1/DTD/svg11.dtd"><svg t="1701228898531" class="icon" viewBox="0 0 1075 1024" version="1.1" xmlns="http://www.w3.org/2000/svg" p-id="1027" xmlns:xlink="http://www.w3.org/1999/xlink" width="209.9609375" height="200"><path d="M581.447472 2.754885c0.087108 35.017511 15.069725 138.763419-30.574991 145.993403-18.815379 3.022656-48.806744 3.196872-89.982807 0.522649-25.609821-1.742165-45.470499-12.282261-45.470499-39.460031 0.174216-54.817213-0.374565-90.270264-1.655056-106.359155 55.862511-4.355412 111.759866-4.590604 167.683353-0.696866z" fill="#E2F0FA" p-id="1028"></path><path d="M307.05653 3.451751c2.32579 47.151688 3.109764 94.399195 2.351922 141.725099-0.783974 44.163875 6.097576 77.352113 56.446137 77.700546 35.601136 0.235192 145.705946 0.3223 330.314429 0.261325 69.338155-0.087108 69.163939-31.184748 70.470563-92.857379 0.871082-42.273627 0.113241-84.555964-2.264815-126.829591 83.510665-0.63589 166.986487-0.609758 250.436178 0.087108 49.477478 0.435541 60.888657 27.264878 60.888656 73.170918 0.113241 295.584376-0.113241 591.142619-0.696866 886.674729-0.060976 36.994868-18.466946 55.984463-55.226621 56.968786-47.622072 1.332756-95.122193 2.264814-142.509073 2.787464 1.132407-52.787591 21.602842-170.557925-56.27192-170.645034-184.033569-0.235192-368.058427-0.200349-552.091997 0.087109-35.888593 0.087108-65.505393 8.362391-69.686588 47.038447-3.310113 30.139449-2.813596 69.573348 1.48084 118.292984-16.463457 11.062746-118.728525 3.745654-143.989914 3.310112-48.432179-0.783974-56.707461-30.574991-56.707461-74.042 0-216.72529 0.148084-433.424447 0.435541-650.088761 0.060976-21.716083 6.707334-41.054111 19.947786-58.014085a20691.855765 20691.855765 0 0 1 147.212918-186.063191C209.146873 1.186937 236.585968 0.925612 307.05653 3.451751z m694.165529 129.878379a54.878188 54.878188 0 1 0-109.756377 0 54.878188 54.878188 0 0 0 109.756377 0z m-192.073659 404.443537a271.342154 271.342154 0 0 0-271.342154-271.342153c-149.861008 0-271.342154 121.481145-271.342154 271.342153s121.481145 271.342154 271.342154 271.342154 271.342154-121.481145 271.342154-271.342154zM200.348942 335.159912a54.79108 54.79108 0 1 0-109.582161 0 54.79108 54.79108 0 0 0 109.582161 0z" fill="#6580A6" p-id="1029"></path><path d="M307.05653 3.451751H413.764119c1.280491 16.088891 1.829273 51.541943 1.655056 106.359155 0 27.177769 19.860678 37.717866 45.470499 39.460031 41.176063 2.674223 71.167428 2.500006 89.982807-0.522649 45.644715-7.229984 30.662099-110.975892 30.574991-145.993403l182.927294 0.696866c2.378055 42.273627 3.135896 84.555964 2.264815 126.829591-1.306624 61.672631-1.132407 92.770271-70.470563 92.857379-184.608483 0.060976-294.713293-0.026132-330.314429-0.261325-50.34856-0.348433-57.230111-33.536671-56.446137-77.700546a2174.779051 2174.779051 0 0 0-2.351922-141.725099z" fill="#4B6182" p-id="1030"></path><path d="M877.26704 1023.140756c-220.732269 0.810107-441.49067 0.435541-662.283915-1.132407-6.097576 0-8.536607-2.613247-14.28575-4.094087-4.294436-48.719636-4.790953-88.153534-1.48084-118.292984 4.181195-38.676057 33.797995-46.951339 69.686588-47.038447 184.033569-0.287457 368.058427-0.3223 552.091997-0.087109 77.874763 0.087108 57.404327 117.857443 56.27192 170.645034z" fill="#E2F0FA" p-id="1031"></path><path d="M946.34387 133.33013m-54.878188 0a54.878188 54.878188 0 1 0 109.756377 0 54.878188 54.878188 0 1 0-109.756377 0Z" fill="#2E3D50" p-id="1032"></path><path d="M809.1484 537.773667a271.342154 271.342154 0 0 1-271.342154 271.342154c-149.861008 0-271.342154-121.481145-271.342154-271.342154s121.481145-271.342154 271.342154-271.342153 271.342154 121.481145 271.342154 271.342153z m-216.202641 0a55.052405 55.052405 0 1 0-110.10481 0 55.052405 55.052405 0 0 0 110.10481 0z m117.09089 96.77725a40.156897 40.156897 0 0 0-0.296168-56.794569l-13.501776-13.353693a40.156897 40.156897 0 0 0-56.79457 0.304879l-47.909529 48.414757a40.156897 40.156897 0 0 0 0.296168 56.79457l13.501776 13.353692a40.156897 40.156897 0 0 0 56.79457-0.296168l47.909529-48.423468z" fill="#E2F0FA" p-id="1033"></path><path d="M145.557862 335.159912m-54.791081 0a54.79108 54.79108 0 1 0 109.582161 0 54.79108 54.79108 0 1 0-109.582161 0Z" fill="#2E3D50" p-id="1034"></path><path d="M537.893354 537.773667m-55.052405 0a55.052405 55.052405 0 1 0 110.10481 0 55.052405 55.052405 0 1 0-110.10481 0Z" fill="#2E3D50" p-id="1035"></path><path d="M667.696523 536.159018m28.543501 28.246148l13.497794 13.357181q28.543501 28.246148 0.297353 56.789649l-47.914291 48.418694q-28.246148 28.543501-56.789649 0.297352l-13.497794-13.357181q-28.543501-28.246148-0.297353-56.789649l47.914291-48.418693q28.246148-28.543501 56.789649-0.297353Z" fill="#C8D9E5" p-id="1036"></path></svg>